<svg xmlns="http://www.w3.org/2000/svg" xmlns:xlink="http://www.w3.org/1999/xlink" width="600" zoomAndPan="magnify" viewBox="0 0 450 449.999984" height="600" preserveAspectRatio="xMidYMid meet" version="1.0"><path fill="#481666" d="M 173.597656 139.335938 C 173.867188 141.789062 174.234375 144.222656 174.710938 146.640625 C 175.183594 149.0625 175.757812 151.457031 176.433594 153.824219 C 177.109375 156.195312 177.886719 158.535156 178.761719 160.839844 C 179.632812 163.144531 180.605469 165.40625 181.667969 167.628906 C 182.734375 169.851562 183.894531 172.027344 185.140625 174.148438 C 186.390625 176.273438 187.730469 178.34375 189.152344 180.355469 C 190.578125 182.367188 192.085938 184.3125 193.675781 186.199219 C 195.265625 188.082031 196.929688 189.894531 198.671875 191.636719 C 200.417969 193.382812 202.230469 195.046875 204.113281 196.636719 C 205.996094 198.226562 207.945312 199.734375 209.957031 201.15625 C 211.96875 202.582031 214.035156 203.917969 216.160156 205.167969 C 218.285156 206.417969 220.460938 207.578125 222.683594 208.640625 C 224.90625 209.707031 227.167969 210.679688 229.472656 211.550781 C 231.777344 212.425781 234.117188 213.199219 236.484375 213.878906 C 238.855469 214.554688 241.25 215.128906 243.671875 215.601562 C 246.089844 216.074219 248.523438 216.445312 250.972656 216.714844 C 282.226562 219.828125 313.558594 221.257812 344.964844 221 C 313.558594 220.742188 282.226562 222.171875 250.972656 225.285156 C 248.523438 225.550781 246.089844 225.921875 243.671875 226.394531 C 241.25 226.867188 238.855469 227.445312 236.484375 228.121094 C 234.117188 228.796875 231.777344 229.570312 229.472656 230.445312 C 227.167969 231.320312 224.90625 232.289062 222.683594 233.355469 C 220.460938 234.421875 218.285156 235.578125 216.160156 236.828125 C 214.039062 238.078125 211.96875 239.414062 209.957031 240.839844 C 207.945312 242.265625 206 243.769531 204.113281 245.359375 C 202.230469 246.949219 200.417969 248.617188 198.675781 250.359375 C 196.929688 252.101562 195.265625 253.914062 193.675781 255.800781 C 192.085938 257.683594 190.578125 259.632812 189.15625 261.644531 C 187.730469 263.65625 186.390625 265.722656 185.144531 267.847656 C 183.894531 269.972656 182.734375 272.144531 181.671875 274.367188 C 180.605469 276.589844 179.632812 278.855469 178.761719 281.160156 C 177.886719 283.464844 177.109375 285.800781 176.433594 288.171875 C 175.757812 290.542969 175.183594 292.9375 174.710938 295.355469 C 174.234375 297.773438 173.867188 300.210938 173.597656 302.660156 C 170.484375 333.914062 169.054688 365.246094 169.3125 396.652344 C 169.570312 365.246094 168.144531 333.914062 165.027344 302.660156 C 164.761719 300.210938 164.390625 297.773438 163.917969 295.355469 C 163.445312 292.9375 162.867188 290.542969 162.191406 288.171875 C 161.515625 285.800781 160.742188 283.464844 159.867188 281.160156 C 158.992188 278.855469 158.023438 276.589844 156.957031 274.367188 C 155.890625 272.144531 154.734375 269.972656 153.484375 267.847656 C 152.234375 265.722656 150.898438 263.652344 149.472656 261.640625 C 148.050781 259.628906 146.542969 257.683594 144.953125 255.800781 C 143.363281 253.914062 141.695312 252.101562 139.953125 250.359375 C 138.210938 248.617188 136.398438 246.949219 134.515625 245.359375 C 132.628906 243.769531 130.683594 242.261719 128.671875 240.839844 C 126.660156 239.414062 124.589844 238.078125 122.464844 236.828125 C 120.34375 235.578125 118.167969 234.417969 115.945312 233.355469 C 113.722656 232.289062 111.460938 231.316406 109.15625 230.445312 C 106.851562 229.570312 104.511719 228.792969 102.140625 228.117188 C 99.773438 227.441406 97.378906 226.867188 94.957031 226.394531 C 92.539062 225.917969 90.105469 225.550781 87.65625 225.28125 C 56.402344 222.167969 25.070312 220.738281 -6.339844 220.996094 C 25.070312 221.253906 56.402344 219.828125 87.65625 216.710938 C 90.105469 216.445312 92.539062 216.074219 94.957031 215.601562 C 97.378906 215.125 99.773438 214.550781 102.140625 213.875 C 104.511719 213.199219 106.851562 212.425781 109.15625 211.550781 C 111.460938 210.675781 113.722656 209.707031 115.945312 208.640625 C 118.167969 207.574219 120.339844 206.417969 122.464844 205.167969 C 124.589844 203.917969 126.660156 202.582031 128.671875 201.15625 C 130.679688 199.730469 132.628906 198.226562 134.511719 196.636719 C 136.398438 195.046875 138.210938 193.378906 139.953125 191.636719 C 141.695312 189.894531 143.363281 188.082031 144.953125 186.195312 C 146.542969 184.3125 148.046875 182.363281 149.472656 180.355469 C 150.898438 178.34375 152.234375 176.273438 153.484375 174.148438 C 154.734375 172.023438 155.890625 169.851562 156.957031 167.628906 C 158.023438 165.40625 158.992188 163.140625 159.867188 160.835938 C 160.742188 158.53125 161.515625 156.195312 162.191406 153.824219 C 162.867188 151.457031 163.441406 149.058594 163.917969 146.640625 C 164.390625 144.222656 164.761719 141.789062 165.027344 139.335938 C 168.144531 108.082031 169.570312 76.753906 169.3125 45.34375 C 169.054688 76.753906 170.484375 108.082031 173.597656 139.335938 Z M 173.597656 139.335938 " fill-opacity="1" fill-rule="nonzero"/><path fill="#481666" d="M 369.703125 268.5625 C 369.839844 269.800781 370.027344 271.035156 370.265625 272.257812 C 370.507812 273.480469 370.796875 274.695312 371.140625 275.894531 C 371.484375 277.09375 371.875 278.277344 372.316406 279.441406 C 372.757812 280.609375 373.25 281.753906 373.789062 282.878906 C 374.328125 284.003906 374.914062 285.101562 375.546875 286.179688 C 376.179688 287.253906 376.855469 288.300781 377.578125 289.316406 C 378.296875 290.335938 379.0625 291.320312 379.863281 292.273438 C 380.667969 293.226562 381.511719 294.144531 382.394531 295.027344 C 383.277344 295.910156 384.195312 296.753906 385.148438 297.558594 C 386.101562 298.363281 387.085938 299.125 388.105469 299.84375 C 389.121094 300.566406 390.167969 301.242188 391.242188 301.875 C 392.320312 302.507812 393.417969 303.09375 394.542969 303.632812 C 395.667969 304.171875 396.8125 304.664062 397.980469 305.105469 C 399.148438 305.546875 400.328125 305.941406 401.527344 306.28125 C 402.730469 306.625 403.941406 306.914062 405.164062 307.15625 C 406.386719 307.394531 407.621094 307.582031 408.859375 307.71875 C 424.675781 309.292969 440.53125 310.015625 456.421875 309.886719 C 440.53125 309.753906 424.675781 310.476562 408.859375 312.050781 C 407.621094 312.1875 406.386719 312.375 405.164062 312.613281 C 403.941406 312.855469 402.730469 313.144531 401.527344 313.488281 C 400.328125 313.832031 399.148438 314.222656 397.980469 314.664062 C 396.8125 315.105469 395.667969 315.597656 394.542969 316.136719 C 393.417969 316.675781 392.320312 317.261719 391.242188 317.894531 C 390.167969 318.527344 389.121094 319.203125 388.105469 319.925781 C 387.085938 320.644531 386.101562 321.410156 385.148438 322.210938 C 384.195312 323.015625 383.277344 323.859375 382.394531 324.742188 C 381.511719 325.625 380.667969 326.542969 379.863281 327.496094 C 379.0625 328.449219 378.296875 329.433594 377.578125 330.453125 C 376.855469 331.46875 376.179688 332.515625 375.546875 333.59375 C 374.914062 334.667969 374.328125 335.765625 373.789062 336.890625 C 373.25 338.015625 372.757812 339.160156 372.316406 340.328125 C 371.875 341.496094 371.484375 342.675781 371.140625 343.875 C 370.796875 345.078125 370.507812 346.289062 370.265625 347.511719 C 370.027344 348.738281 369.839844 349.96875 369.703125 351.207031 C 368.128906 367.023438 367.40625 382.878906 367.539062 398.773438 C 367.667969 382.878906 366.945312 367.023438 365.367188 351.207031 C 365.230469 349.96875 365.042969 348.738281 364.804688 347.511719 C 364.566406 346.289062 364.273438 345.078125 363.933594 343.875 C 363.589844 342.675781 363.199219 341.496094 362.753906 340.328125 C 362.3125 339.160156 361.824219 338.015625 361.28125 336.890625 C 360.742188 335.765625 360.15625 334.667969 359.527344 333.589844 C 358.894531 332.515625 358.214844 331.46875 357.496094 330.453125 C 356.773438 329.433594 356.011719 328.449219 355.207031 327.496094 C 354.402344 326.542969 353.558594 325.625 352.679688 324.742188 C 351.796875 323.859375 350.878906 323.015625 349.925781 322.210938 C 348.972656 321.40625 347.984375 320.644531 346.96875 319.925781 C 345.949219 319.203125 344.902344 318.527344 343.828125 317.894531 C 342.753906 317.261719 341.652344 316.675781 340.527344 316.136719 C 339.402344 315.597656 338.257812 315.105469 337.09375 314.664062 C 335.925781 314.222656 334.742188 313.832031 333.542969 313.488281 C 332.34375 313.144531 331.132812 312.855469 329.90625 312.613281 C 328.683594 312.375 327.453125 312.1875 326.210938 312.050781 C 310.394531 310.476562 294.542969 309.753906 278.648438 309.886719 C 294.542969 310.015625 310.394531 309.292969 326.210938 307.71875 C 327.453125 307.582031 328.683594 307.394531 329.90625 307.15625 C 331.132812 306.914062 332.34375 306.625 333.542969 306.28125 C 334.742188 305.941406 335.925781 305.546875 337.09375 305.105469 C 338.257812 304.664062 339.402344 304.171875 340.527344 303.632812 C 341.652344 303.09375 342.753906 302.507812 343.828125 301.875 C 344.902344 301.242188 345.949219 300.566406 346.96875 299.847656 C 347.984375 299.125 348.972656 298.363281 349.925781 297.558594 C 350.878906 296.753906 351.796875 295.910156 352.679688 295.027344 C 353.558594 294.144531 354.402344 293.230469 355.207031 292.273438 C 356.011719 291.320312 356.773438 290.335938 357.496094 289.316406 C 358.214844 288.300781 358.894531 287.253906 359.527344 286.179688 C 360.15625 285.101562 360.742188 284.003906 361.28125 282.878906 C 361.824219 281.753906 362.3125 280.609375 362.753906 279.441406 C 363.199219 278.277344 363.589844 277.09375 363.933594 275.894531 C 364.273438 274.695312 364.566406 273.480469 364.804688 272.257812 C 365.042969 271.035156 365.230469 269.800781 365.367188 268.5625 C 366.949219 252.746094 367.675781 236.890625 367.546875 220.996094 C 367.414062 236.890625 368.132812 252.746094 369.703125 268.5625 Z M 369.703125 268.5625 " fill-opacity="1" fill-rule="nonzero"/><path fill="#481666" d="M 302.890625 93.152344 C 303.054688 94.667969 303.347656 96.160156 303.765625 97.628906 C 304.183594 99.097656 304.722656 100.519531 305.382812 101.894531 C 306.042969 103.269531 306.8125 104.578125 307.695312 105.824219 C 308.578125 107.070312 309.558594 108.234375 310.636719 109.3125 C 311.714844 110.390625 312.878906 111.371094 314.121094 112.253906 C 315.367188 113.132812 316.679688 113.90625 318.054688 114.566406 C 319.429688 115.226562 320.851562 115.765625 322.320312 116.183594 C 323.785156 116.601562 325.277344 116.894531 326.796875 117.058594 C 336.453125 118.019531 346.132812 118.460938 355.835938 118.382812 C 346.132812 118.304688 336.453125 118.746094 326.796875 119.707031 C 325.277344 119.871094 323.785156 120.164062 322.320312 120.582031 C 320.851562 121 319.429688 121.539062 318.054688 122.199219 C 316.679688 122.859375 315.367188 123.628906 314.121094 124.511719 C 312.878906 125.394531 311.714844 126.375 310.636719 127.453125 C 309.558594 128.535156 308.578125 129.695312 307.695312 130.941406 C 306.8125 132.1875 306.042969 133.496094 305.382812 134.871094 C 304.722656 136.25 304.183594 137.671875 303.765625 139.136719 C 303.347656 140.605469 303.054688 142.097656 302.890625 143.613281 C 301.925781 153.269531 301.484375 162.949219 301.566406 172.652344 C 301.644531 162.949219 301.203125 153.269531 300.238281 143.613281 C 300.074219 142.097656 299.78125 140.605469 299.363281 139.136719 C 298.945312 137.671875 298.40625 136.25 297.746094 134.871094 C 297.085938 133.496094 296.316406 132.1875 295.433594 130.941406 C 294.550781 129.695312 293.570312 128.535156 292.492188 127.453125 C 291.414062 126.375 290.25 125.394531 289.007812 124.511719 C 287.761719 123.628906 286.449219 122.859375 285.074219 122.199219 C 283.699219 121.539062 282.277344 121 280.808594 120.582031 C 279.34375 120.164062 277.851562 119.871094 276.332031 119.707031 C 266.675781 118.746094 256.996094 118.304688 247.292969 118.382812 C 256.996094 118.460938 266.675781 118.019531 276.332031 117.058594 C 277.851562 116.894531 279.339844 116.601562 280.808594 116.179688 C 282.277344 115.761719 283.695312 115.222656 285.070312 114.5625 C 286.449219 113.902344 287.757812 113.132812 289.003906 112.25 C 290.246094 111.367188 291.410156 110.386719 292.488281 109.308594 C 293.566406 108.230469 294.546875 107.066406 295.425781 105.824219 C 296.308594 104.578125 297.078125 103.269531 297.738281 101.890625 C 298.398438 100.515625 298.9375 99.09375 299.355469 97.628906 C 299.773438 96.160156 300.066406 94.667969 300.230469 93.152344 C 301.199219 83.492188 301.640625 73.808594 301.566406 64.101562 C 301.484375 73.808594 301.925781 83.492188 302.890625 93.152344 Z M 302.890625 93.152344 " fill-opacity="1" fill-rule="nonzero"/></svg>